<svg width="136" height="126" viewBox="0 0 136 126" fill="none" xmlns="http://www.w3.org/2000/svg">
<path d="M115.967 18.3531C103.162 6.51781 86.1378 0 68.0296 0C49.9214 0 32.8968 6.51781 20.0923 18.3531C7.28815 30.1883 0.236328 45.9243 0.236328 62.6619C0.236328 79.3994 7.28815 95.1354 20.0923 106.971C32.8968 118.806 49.9214 125.324 68.0296 125.324C86.1378 125.324 103.162 118.806 115.967 106.971C128.771 95.1354 135.823 79.3994 135.823 62.6619C135.823 45.9243 128.771 30.1883 115.967 18.3531ZM68.0296 117.981C35.0288 117.981 8.18085 93.1647 8.18085 62.6619C8.18085 32.159 35.0288 7.34319 68.0296 7.34319C101.03 7.34319 127.878 32.159 127.878 62.6619C127.878 93.1647 101.03 117.981 68.0296 117.981Z" fill="#20141D"/>
<path d="M72.2849 58.9906H63.7753C58.9273 58.9906 54.9833 55.3452 54.9833 50.8644C54.9833 46.3833 58.9275 42.7379 63.7753 42.7379H80.7943C82.9881 42.7379 84.7666 41.094 84.7666 39.0663C84.7666 37.0386 82.9881 35.3947 80.7943 35.3947H72.0024V27.2683C72.0024 25.2406 70.2239 23.5967 68.0301 23.5967C65.8364 23.5967 64.0578 25.2406 64.0578 27.2683V35.3947H63.7755C54.5469 35.3947 47.0391 42.3345 47.0391 50.8644C47.0391 59.3942 54.5472 66.3338 63.7755 66.3338H72.2852C77.1329 66.3338 81.0769 69.9794 81.0769 74.4603C81.0769 78.9411 77.1329 82.5867 72.2852 82.5867H55.2662C53.0724 82.5867 51.2939 84.2306 51.2939 86.2583C51.2939 88.286 53.0724 89.9299 55.2662 89.9299H64.0578V98.0566C64.0578 100.084 65.8364 101.728 68.0301 101.728C70.2239 101.728 72.0024 100.084 72.0024 98.0566V89.9299H72.2849C81.5133 89.9299 89.0211 82.9901 89.0211 74.4603C89.0211 65.9304 81.5133 58.9906 72.2849 58.9906Z" fill="#20141D"/>
</svg>
