<svg width="82" height="130" viewBox="0 0 82 130" fill="none" xmlns="http://www.w3.org/2000/svg">
<path d="M52.7634 6.5H28.8298C27.5088 6.5 26.4365 7.47069 26.4365 8.6666C26.4365 9.86251 27.5088 10.8332 28.8298 10.8332H52.7634C54.0844 10.8332 55.1567 9.86251 55.1567 8.6666C55.1567 7.47069 54.0844 6.5 52.7634 6.5Z" fill="#20141D"/>
<path d="M69.517 6.5H67.1237C65.8027 6.5 64.7305 7.47069 64.7305 8.6666C64.7305 9.86251 65.8027 10.8332 67.1237 10.8332H69.517C70.838 10.8332 71.9103 9.86251 71.9103 8.6666C71.9103 7.47069 70.838 6.5 69.517 6.5Z" fill="#20141D"/>
<path d="M43.7685 110.5H37.8258C34.1856 110.5 31.2227 113.182 31.2227 116.478V117.524C31.2227 120.82 34.1856 123.5 37.8236 123.5H43.7662C47.4065 123.5 50.3694 120.82 50.3694 117.524V116.478C50.3694 113.182 47.4065 110.5 43.7685 110.5ZM45.5829 117.524C45.5829 118.43 44.7692 119.167 43.7688 119.167H37.8258C36.8231 119.167 36.0092 118.43 36.0092 117.524V116.478C36.0092 115.57 36.8229 114.833 37.8258 114.833H43.7662C44.7692 114.833 45.5829 115.57 45.5829 116.478V117.524Z" fill="#20141D"/>
<path d="M72.8342 0H8.76139C3.9914 0 0.109375 3.51432 0.109375 7.8325V122.168C0.109375 126.486 3.9914 130 8.76139 130H72.8317C77.6017 130 81.4837 126.486 81.4837 122.17V7.8325C81.484 3.51432 77.602 0 72.8342 0ZM76.6972 122.168C76.6972 124.096 74.9644 125.667 72.8342 125.667H8.76139C6.62896 125.667 4.8962 124.096 4.8962 122.17V7.8325C4.8962 5.90408 6.62896 4.33342 8.76139 4.33342H72.8317C74.9641 4.33342 76.6969 5.90434 76.6969 7.8325V122.168H76.6972Z" fill="#20141D"/>
<path d="M79.0931 13H2.50558C1.18455 13 0.112305 13.9707 0.112305 15.1666V106.167C0.112305 107.363 1.18455 108.333 2.50558 108.333H79.0934C80.4144 108.333 81.4867 107.363 81.4867 106.167V15.1666C81.4867 13.9707 80.4144 13 79.0931 13ZM76.6998 104H4.89885V17.3334H76.6998V104Z" fill="#20141D"/>
</svg>
