<svg width="117" height="130" viewBox="0 0 117 130" fill="none" xmlns="http://www.w3.org/2000/svg">
<path d="M51.2598 125.398H4.48848V21.7756L17.31 7.85614V18.5212H13.4956C12.9335 18.5212 12.3945 18.7636 11.9971 19.1951C11.5997 19.6266 11.3764 20.2119 11.3764 20.8221C11.3764 21.4323 11.5997 22.0176 11.9971 22.4491C12.3945 22.8806 12.9335 23.123 13.4956 23.123H19.4291C19.9911 23.123 20.5301 22.8806 20.9275 22.4491C21.3249 22.0176 21.5482 21.4323 21.5482 20.8221V4.60177H81.6241V33.0168C81.6241 33.627 81.8474 34.2123 82.2448 34.6438C82.6422 35.0753 83.1812 35.3177 83.7432 35.3177C84.3053 35.3177 84.8443 35.0753 85.2417 34.6438C85.6391 34.2123 85.8624 33.627 85.8624 33.0168V2.30088C85.8624 1.69065 85.6391 1.10541 85.2417 0.673915C84.8443 0.242416 84.3053 0 83.7432 0H19.4291C18.867 8.82867e-05 18.328 0.242399 17.9304 0.673701L0.872431 19.1949C0.675665 19.4086 0.519596 19.6623 0.413134 19.9415C0.306672 20.2207 0.251901 20.5199 0.251953 20.8221V127.699C0.251953 128.309 0.475218 128.895 0.872628 129.326C1.27004 129.758 1.80904 130 2.37106 130H51.2598C51.8218 130 52.3608 129.758 52.7583 129.326C53.1557 128.895 53.3789 128.309 53.3789 127.699C53.3789 127.089 53.1557 126.504 52.7583 126.072C52.3608 125.641 51.8218 125.398 51.2598 125.398Z" fill="#20141D"/>
<path d="M55.0245 39.9963C55.568 39.9963 56.0892 39.7539 56.4735 39.3224C56.8578 38.8909 57.0737 38.3056 57.0737 37.6954C57.0737 37.0852 56.8578 36.4999 56.4735 36.0684C56.0892 35.6369 55.568 35.3945 55.0245 35.3945H28.2542C27.7108 35.3945 27.1896 35.6369 26.8053 36.0684C26.421 36.4999 26.2051 37.0852 26.2051 37.6954C26.2051 38.3056 26.421 38.8909 26.8053 39.3224C27.1896 39.7539 27.7108 39.9963 28.2542 39.9963H55.0245Z" fill="#20141D"/>
<path d="M64.1844 51.6543H19.1029C18.5594 51.6543 18.0382 51.8967 17.6539 52.3282C17.2696 52.7597 17.0537 53.3449 17.0537 53.9552C17.0537 54.5654 17.2696 55.1507 17.6539 55.5822C18.0382 56.0137 18.5594 56.2561 19.1029 56.2561H64.1844C64.7279 56.2561 65.2491 56.0137 65.6334 55.5822C66.0177 55.1507 66.2336 54.5654 66.2336 53.9552C66.2336 53.3449 66.0177 52.7597 65.6334 52.3282C65.2491 51.8967 64.7279 51.6543 64.1844 51.6543Z" fill="#20141D"/>
<path d="M64.1844 62.6982H19.1029C18.5594 62.6982 18.0382 62.9407 17.6539 63.3722C17.2696 63.8037 17.0537 64.3889 17.0537 64.9991C17.0537 65.6094 17.2696 66.1946 17.6539 66.6261C18.0382 67.0576 18.5594 67.3 19.1029 67.3H64.1844C64.7279 67.3 65.2491 67.0576 65.6334 66.6261C66.0177 66.1946 66.2336 65.6094 66.2336 64.9991C66.2336 64.3889 66.0177 63.8037 65.6334 63.3722C65.2491 62.9407 64.7279 62.6982 64.1844 62.6982Z" fill="#20141D"/>
<path d="M64.1844 73.7422H19.1029C18.5594 73.7422 18.0382 73.9846 17.6539 74.4161C17.2696 74.8476 17.0537 75.4328 17.0537 76.0431C17.0537 76.6533 17.2696 77.2385 17.6539 77.67C18.0382 78.1015 18.5594 78.344 19.1029 78.344H64.1844C64.7279 78.344 65.2491 78.1015 65.6334 77.67C66.0177 77.2385 66.2336 76.6533 66.2336 76.0431C66.2336 75.4328 66.0177 74.8476 65.6334 74.4161C65.2491 73.9846 64.7279 73.7422 64.1844 73.7422Z" fill="#20141D"/>
<path d="M66.2336 87.088C66.2336 86.4778 66.0177 85.8925 65.6334 85.461C65.2491 85.0295 64.7279 84.7871 64.1844 84.7871H19.1029C18.5594 84.7871 18.0382 85.0295 17.6539 85.461C17.2696 85.8925 17.0537 86.4778 17.0537 87.088C17.0537 87.6982 17.2696 88.2835 17.6539 88.715C18.0382 89.1465 18.5594 89.3889 19.1029 89.3889H64.1844C64.7279 89.3889 65.2491 89.1465 65.6334 88.715C66.0177 88.2835 66.2336 87.6982 66.2336 87.088Z" fill="#20141D"/>
<path d="M36.8648 102.699C33.6782 104.369 30.6882 106.477 27.9633 108.974C27.8728 107.583 27.4787 106.238 26.8157 105.058C26.5241 104.576 26.1338 104.179 25.6775 103.9C25.2212 103.621 24.7121 103.47 24.1928 103.457C21.4207 103.413 18.388 107.313 17.2109 109.007C16.9112 109.49 16.7876 110.083 16.8656 110.665C16.9436 111.247 17.2172 111.773 17.6302 112.136C18.0433 112.498 18.5642 112.669 19.086 112.613C19.6078 112.557 20.0907 112.279 20.4355 111.836C21.3557 110.48 22.4508 109.285 23.6846 108.291C23.8127 108.882 23.9015 109.483 23.9502 110.089C24.1141 111.65 24.3158 113.586 25.9649 114.323C26.2866 114.467 26.6299 114.542 26.9764 114.542C28.273 114.371 29.4799 113.712 30.401 112.673C32.8847 110.382 35.6107 108.443 38.5173 106.901C39.0146 106.655 39.4046 106.197 39.6014 105.628C39.7981 105.059 39.7855 104.426 39.5664 103.867C39.3473 103.309 38.9396 102.871 38.4329 102.65C37.9263 102.429 37.3622 102.443 36.8648 102.689V102.699Z" fill="#20141D"/>
<path d="M113.978 101.674H91.6262V94.8887H93.4835C94.027 94.8887 94.5482 94.6463 94.9325 94.2148C95.3168 93.7833 95.5327 93.198 95.5327 92.5878V89.3923C95.3984 81.5495 96.5029 73.742 98.795 66.3319C99.4023 64.4641 99.712 62.4908 99.7097 60.5024C99.7121 58.0386 99.2395 55.6033 98.3243 53.364C97.4091 51.1247 96.073 49.1344 94.4079 47.5297C92.7427 45.9251 90.788 44.7442 88.6779 44.0682C86.5678 43.3922 84.3524 43.2371 82.1838 43.6135C80.0153 43.9899 77.945 44.889 76.1152 46.2489C74.2854 47.6088 72.7395 49.3973 71.5836 51.4916C70.4277 53.586 69.6893 55.9364 69.4191 58.3815C69.1488 60.8266 69.3532 63.3084 70.0181 65.6564C72.186 72.8014 73.3535 80.2808 73.4787 87.8277V92.5804C73.4787 92.8826 73.5317 93.1818 73.6347 93.461C73.7377 93.7401 73.8886 93.9938 74.0789 94.2074C74.2692 94.4211 74.4951 94.5905 74.7437 94.7062C74.9923 94.8218 75.2588 94.8813 75.5279 94.8813H77.3853V101.668H55.0248C54.4813 101.668 53.9601 101.91 53.5758 102.342C53.1915 102.773 52.9756 103.359 52.9756 103.969V118.915C52.9756 119.526 53.1915 120.111 53.5758 120.542C53.9601 120.974 54.4813 121.216 55.0248 121.216H58.9969V127.694C58.9969 128.304 59.2128 128.889 59.597 129.321C59.9813 129.752 60.5026 129.995 61.046 129.995H107.959C108.502 129.995 109.024 129.752 109.408 129.321C109.792 128.889 110.008 128.304 110.008 127.694C110.008 127.084 109.792 126.498 109.408 126.067C109.024 125.635 108.502 125.393 107.959 125.393H63.1018V121.222H113.978C114.522 121.222 115.043 120.979 115.427 120.548C115.812 120.116 116.028 119.531 116.028 118.921V103.974C116.028 103.364 115.812 102.779 115.427 102.347C115.043 101.916 114.522 101.674 113.978 101.674ZM73.9214 64.263C73.437 62.5486 73.2888 60.7368 73.4869 58.952C73.685 57.1672 74.2246 55.4516 75.0688 53.9231C75.9131 52.3945 77.0418 51.0892 78.3777 50.0966C79.7135 49.1041 81.2248 48.4478 82.8078 48.1729C84.3909 47.898 86.0081 48.011 87.5486 48.504C89.0891 48.9971 90.5163 49.8585 91.7323 51.0293C92.9483 52.2001 93.9243 53.6524 94.5933 55.2866C95.2624 56.9209 95.6085 58.6983 95.6081 60.4969C95.6098 61.9471 95.3845 63.3863 94.9425 64.7489C92.4846 72.664 91.2968 81.0059 91.4343 89.3868V90.2814H77.5738V87.8333C77.4503 79.8116 76.2181 71.8601 73.9214 64.263ZM81.4836 94.8887H87.5278V101.675H81.4836V94.8887ZM111.929 116.62H57.0805V106.275H111.929V116.62Z" fill="#20141D"/>
</svg>
