<svg width="50" height="68" viewBox="0 0 50 68" fill="none" xmlns="http://www.w3.org/2000/svg">
<path d="M4.00164 8.41797H40.0164C42.2263 8.41797 44.018 10.3024 44.018 12.6267V63.1317C44.018 65.456 42.2263 67.3405 40.0164 67.3405H4.00164C1.79173 67.3405 0 65.456 0 63.1317V12.6267C0 10.3024 1.79173 8.41797 4.00164 8.41797Z" fill="#BD6428"/>
<path d="M5.00187 63.13C4.44965 63.13 4.00146 62.6586 4.00146 62.0778V13.6772C4.00146 13.0964 4.44965 12.625 5.00187 12.625H39.0158C39.568 12.625 40.0162 13.0964 40.0162 13.6772V43.8555C40.0162 48.7992 38.1167 53.5538 34.7102 57.1366C31.0716 60.9635 26.0223 63.13 20.7417 63.13H5.00187Z" fill="#F5F6F6"/>
<path d="M12.0047 11.6263C12.0047 12.1788 11.5568 12.6267 11.0043 12.6267C10.4518 12.6267 10.0039 12.1788 10.0039 11.6263V10.5223C10.0039 10.1304 10.1056 9.76362 10.2829 9.44952C10.854 8.43731 12.0047 9.36013 12.0047 10.5223V11.6263Z" fill="#AE5C26"/>
<path d="M10.5045 29.4609H33.514C34.3423 29.4609 35.0146 30.168 35.0146 31.0392C35.0146 31.9104 34.3423 32.6175 33.514 32.6175H10.5045C9.67618 32.6175 9.00391 31.9104 9.00391 31.0392C9.00391 30.168 9.67618 29.4609 10.5045 29.4609Z" fill="#9BA7AF"/>
<path d="M10.5045 35.7734H33.514C34.3423 35.7734 35.0146 36.4805 35.0146 37.3517C35.0146 38.2229 34.3423 38.93 33.514 38.93H10.5045C9.67618 38.93 9.00391 38.2229 9.00391 37.3517C9.00391 36.4805 9.67618 35.7734 10.5045 35.7734Z" fill="#9BA7AF"/>
<path d="M10.5045 42.0859H23.5099C24.3382 42.0859 25.0105 42.793 25.0105 43.6642C25.0105 44.5354 24.3382 45.2425 23.5099 45.2425H10.5045C9.67618 45.2425 9.00391 44.5354 9.00391 43.6642C9.00391 42.793 9.67618 42.0859 10.5045 42.0859Z" fill="#9BA7AF"/>
<path d="M15.5065 21.043H28.5118C29.3401 21.043 30.0124 21.75 30.0124 22.6213C30.0124 23.4925 29.3401 24.1995 28.5118 24.1995H15.5065C14.6781 24.1995 14.0059 23.4925 14.0059 22.6213C14.0059 21.75 14.6781 21.043 15.5065 21.043Z" fill="#9BA7AF"/>
<path d="M34.7102 57.1373C36.7109 55.033 35.2193 51.5566 32.3157 51.5566H30.0121C29.4599 51.5566 29.0117 52.028 29.0117 52.6088V54.8607C29.0117 57.8446 32.6541 59.2998 34.7102 57.1373Z" fill="#CECECE"/>
<path d="M1.00041 11.5742C1.55264 11.5742 2.00082 12.0456 2.00082 12.6264V47.3486C2.00082 47.9294 1.55264 48.4008 1.00041 48.4008C0.448184 48.4008 0 47.9294 0 47.3486V12.6264C0 12.0456 0.448184 11.5742 1.00041 11.5742Z" fill="#D17F4D"/>
<path d="M28.0113 53.6596V55.764C28.0113 56.3448 27.5631 56.8162 27.0109 56.8162C26.4587 56.8162 26.0105 57.2876 26.0105 57.8684C26.0105 58.4492 25.5623 58.9205 25.0101 58.9205H24.0097C23.4574 58.9205 23.0093 59.3919 23.0093 59.9727C23.0093 60.5535 22.5611 61.0249 22.0088 61.0249H5.05365C4.47254 61.0249 4.00146 61.496 4.00146 62.0771C4.00146 62.6579 4.44965 63.1293 5.00188 63.1293H23.7508C26.6563 63.1293 29.0117 60.7739 29.0117 57.8684V54.2197C29.0117 53.3293 28.0113 52.7692 28.0113 53.6596Z" fill="#E9E9E9"/>
<path d="M39.0159 12.625H10.9514C10.4361 12.625 10.0301 13.0574 10.004 13.572C9.94897 14.7325 10.7983 15.7205 11.9018 15.7784C11.9368 15.7805 11.9708 15.7816 12.0048 15.7816H36.0147C37.1201 15.7816 38.0155 16.7233 38.0155 17.8859V21.0425C38.0155 22.8237 40.0163 21.703 40.0163 19.9218V13.6772C40.0163 13.0964 39.5691 12.625 39.0159 12.625Z" fill="#E9E9E9"/>
<path d="M28.6017 5.93456C27.7313 5.55683 27.0721 4.78242 26.811 3.83019C26.0376 1.04084 23.2605 -0.560592 20.6084 0.252749C18.9677 0.755695 17.6852 2.1046 17.207 3.83019C16.9459 4.78242 16.2866 5.55683 15.4163 5.93456L13.2654 6.83945C12.5071 7.15721 12.0079 7.92741 12.0049 8.78599V12.6265C12.0049 13.7891 12.9002 14.7309 14.0057 14.7309H30.0123C31.1177 14.7309 32.0131 13.7891 32.0131 12.6265V8.78599C32.0101 7.92741 31.5109 7.15721 30.7526 6.83945L28.6017 5.93456ZM22.009 7.36554C20.9035 7.36554 20.0082 6.42383 20.0082 5.26116C20.0082 4.0985 20.9035 3.15679 22.009 3.15679C23.1144 3.15679 24.0098 4.0985 24.0098 5.26116C24.0098 6.42383 23.1144 7.36554 22.009 7.36554Z" fill="#9BA7AF"/>
<path d="M29.0119 8.41797C28.4596 8.41797 28.0114 8.88935 28.0114 9.47016C28.0114 10.051 27.5633 10.5223 27.011 10.5223H25.0102C24.458 10.5223 24.0098 10.9937 24.0098 11.5745C24.0098 12.1553 23.5616 12.6267 23.0094 12.6267H15.2299C13.4488 12.6267 12.2246 14.7311 14.0057 14.7311H30.0123C31.1177 14.7311 32.0131 13.7894 32.0131 12.6267V11.4192C32.0131 9.76167 30.6694 8.41797 29.0119 8.41797Z" fill="#72818B"/>
<path d="M18.1374 5.26102C17.5852 5.27996 17.123 4.82331 17.106 4.24251C17.103 4.14255 17.114 4.04259 17.137 3.94579C17.7102 1.61204 19.718 -0.0135928 22.009 8.56677e-05C22.5612 8.56677e-05 23.0094 0.471466 23.0094 1.05227C23.0094 1.63308 22.5612 2.10446 22.009 2.10446C20.6384 2.10236 19.4399 3.07668 19.0978 4.47188C18.9847 4.93379 18.5906 5.25682 18.1374 5.26102Z" fill="#AFBABF"/>
<path d="M40.0163 10.5223H36.0147C35.2405 10.5223 34.5694 10.0605 34.2367 9.38446C33.9927 8.88873 33.5659 8.41797 33.0134 8.41797C32.4609 8.41797 32.013 8.86587 32.013 9.41838V10.5223C32.013 11.6846 32.9552 12.6267 34.1174 12.6267H39.0159C39.5681 12.6267 40.0163 13.0981 40.0163 13.6789V43.8572C40.0163 48.8009 38.1167 53.5556 34.7103 57.1383L33.979 57.9074C30.8073 61.2433 26.406 63.1317 21.803 63.1317H8.227C6.44586 63.1317 5.22163 65.2361 7.00277 65.2361H31.3528C32.4142 65.2372 33.4326 64.7942 34.1839 64.005L40.8466 56.9975C41.597 56.2073 42.0181 55.1362 42.0171 54.0198V12.6267C42.0171 11.4651 41.1218 10.5223 40.0163 10.5223Z" fill="#A35623"/>
<path d="M40.5809 34.0561C40.2187 34.4294 40.0161 34.9292 40.0161 35.4493V45.2443C40.0161 45.8251 40.4643 46.2965 41.0165 46.2965C41.5687 46.2965 42.0169 45.8251 42.0169 45.2443V44.1921C42.0169 43.6113 42.4651 43.1399 43.0173 43.1399C43.5696 43.1399 44.0178 42.6685 44.0178 42.0877V35.4493C44.0178 33.6522 41.8323 32.7662 40.5809 34.0561Z" fill="#A35623"/>
<path d="M43.0175 41.0355C42.7514 41.0376 42.4963 40.9271 42.3072 40.7303C40.8156 39.1573 40.8156 36.611 42.3072 35.038L46.3088 30.8293C47.0241 30.078 47.0251 28.8585 46.3108 28.1062C46.3098 28.1051 46.3098 28.1051 46.3088 28.1041C45.9497 27.6632 45.9987 26.9982 46.4179 26.6205C46.792 26.2827 47.3453 26.2827 47.7194 26.6205C49.211 28.1935 49.211 30.7398 47.7194 32.3128L43.7178 36.5216C43.0025 37.2728 43.0015 38.4923 43.7158 39.2446C43.7168 39.2457 43.7168 39.2457 43.7178 39.2468C44.1049 39.6613 44.0979 40.3273 43.7038 40.7345C43.5207 40.9239 43.2746 41.0313 43.0175 41.0355Z" fill="#AFBABF"/>
<path d="M24.0098 45.244C23.4575 45.2451 23.0083 44.7758 23.0063 44.195C23.0063 44.0792 23.0234 43.9645 23.0594 43.8551L24.0598 40.6986C24.2338 40.1462 24.8001 39.8473 25.3253 40.0304C25.8505 40.2135 26.1346 40.809 25.9606 41.3614L25.946 41.407C25.8001 41.8632 26.2393 42.2893 26.6909 42.1295C27.2161 41.9464 27.7823 42.2453 27.9564 42.7977C28.1304 43.3501 27.8463 43.9456 27.3211 44.1287L24.3199 45.1809C24.2208 45.2187 24.1158 45.2408 24.0098 45.244Z" fill="#35363E"/>
<path d="M25.7203 36.5221L31.3126 42.4038C31.7028 42.812 32.333 42.812 32.7232 42.4038L43.696 30.855C45.5579 28.8953 45.5574 25.8202 43.6948 23.8612C41.6938 21.7567 38.3385 21.7567 36.3376 23.8612L25.7203 35.028C25.3302 35.4351 25.3252 36.0964 25.7083 36.5093C25.7123 36.5136 25.7163 36.5178 25.7203 36.5221Z" fill="#FE7A7C"/>
<path d="M46.3069 26.6061C45.8783 26.1553 45.1595 26.1553 44.7309 26.6061L33.8041 38.0985C33.414 38.5067 32.7837 38.5067 32.3935 38.0985L30.953 36.5833C30.31 35.8893 29.1904 37.1132 28.4271 36.5543C28.2513 36.4255 28.0487 36.2433 27.8117 35.9941L27.0113 35.1523C26.3684 34.4584 25.0924 35.54 25.5923 36.3431C25.629 36.402 25.6718 36.4578 25.7208 36.5097L30.5128 41.5602L31.3031 42.3914C31.6933 42.7996 32.3235 42.7996 32.7137 42.3914L46.3067 28.1049C46.706 27.6851 46.7061 27.026 46.3069 26.6061Z" fill="#FE7A7C"/>
<path d="M41.5672 18.3596C40.6985 19.2733 40.6985 20.7076 41.5672 21.6214L45.4688 25.7249C46.3123 26.612 47.7267 26.612 48.5701 25.7249C50.4769 23.6794 50.4769 20.405 48.5701 18.3596C46.6253 16.3541 43.512 16.3541 41.5672 18.3596Z" fill="#595A66"/>
<path d="M23.7198 40.7298L27.3113 44.5071C27.7015 44.9154 28.3317 44.9154 28.7219 44.5071C30.0062 43.1505 30.0039 41.0259 28.7166 39.6721L28.3017 39.2357C27.0556 37.9251 24.966 37.9251 23.7198 39.2357C23.3297 39.6429 23.3247 40.3041 23.7078 40.7171C23.7118 40.7213 23.7158 40.7256 23.7198 40.7298Z" fill="#595A66"/>
<path d="M31.3028 42.3931C31.1449 42.2271 30.8803 42.2271 30.7225 42.3931L28.7217 44.4975C28.3315 44.9057 27.7013 44.9057 27.3111 44.4975C27.128 44.3113 26.8537 44.2477 26.6073 44.3344L24.2916 45.1492C24.2905 45.1496 24.2893 45.1501 24.2882 45.1507C24.2607 45.1651 24.2737 45.2445 24.3048 45.2445H28.5716C29.523 45.2435 30.4624 45.0099 31.3128 44.5606L33.1335 43.6031C33.7177 43.2948 34.252 42.8897 34.7142 42.4036C35.5465 41.5261 36.677 41.0347 37.8554 41.0358H38.0155C39.121 41.0358 40.0163 40.0941 40.0163 38.9314C40.0163 37.4129 38.1626 36.6723 37.1163 37.7728L32.7233 42.3931C32.3342 42.8056 31.7009 42.8087 31.3088 42.3994C31.3068 42.3973 31.3048 42.3952 31.3028 42.3931Z" fill="#E9E9E9"/>
<path d="M27.6024 38.5002C26.7359 37.5889 25.1408 38.0106 26.0048 38.9242C26.0068 38.9263 26.0088 38.9284 26.0108 38.9305L28.0116 41.0349C28.5638 41.5789 28.5928 42.4912 28.0756 43.072C28.0556 43.0951 28.0336 43.1172 28.0116 43.1393L27.3013 43.8863C27.1388 44.0573 27.1388 44.3257 27.3013 44.4966C27.6915 44.9049 28.3217 44.9049 28.7119 44.4966C30.0002 43.1475 30.0025 41.0245 28.7171 39.6726L27.6024 38.5002Z" fill="#35363E"/>
<path d="M39.0162 26.3038C38.464 26.3069 38.0128 25.8387 38.0098 25.2579C38.0078 24.9748 38.1148 24.7034 38.3059 24.5045L42.3076 20.2958C42.7267 19.918 43.359 19.9696 43.7181 20.4104C44.0393 20.804 44.0393 21.3858 43.7181 21.7793L39.7165 25.9881C39.5324 26.1859 39.2803 26.2995 39.0162 26.3038Z" fill="#FE7A7C"/>
<path d="M41.9866 22.0626C42.3896 22.4865 43.0654 22.4865 43.4683 22.0626L43.7279 21.7896C44.087 21.3488 44.038 20.6838 43.6188 20.306C43.2447 19.9683 42.6915 19.9683 42.3173 20.306L41.9866 20.6538C41.6114 21.0485 41.6114 21.668 41.9866 22.0626Z" fill="#6F707E"/>
<path d="M46.231 26.5276C46.6597 26.9785 47.3786 26.9785 47.8073 26.5276L48.0196 26.3044C48.3837 25.8341 48.3447 25.148 47.9295 24.7261C47.5394 24.3179 46.9091 24.3179 46.519 24.7261L46.231 25.0289C45.8319 25.4488 45.8319 26.1078 46.231 26.5276Z" fill="#35363E"/>
</svg>
