<svg width="50" height="68" viewBox="0 0 50 68" fill="none" xmlns="http://www.w3.org/2000/svg">
<path d="M13.7098 16.8346C13.2644 16.8346 12.9033 16.3321 12.9033 15.7123C12.9033 15.0925 13.2644 14.5899 13.7098 14.5899C14.5991 14.5899 15.3227 13.5829 15.3227 12.3453V10.1006C15.3227 8.86299 14.5991 7.85598 13.7098 7.85598C13.2644 7.85598 12.9033 7.35346 12.9033 6.73366C12.9033 6.11385 13.2644 5.61133 13.7098 5.61133C15.4885 5.61133 16.9356 7.6252 16.9356 10.1006V12.3453C16.9356 14.8207 15.4885 16.8346 13.7098 16.8346Z" fill="white"/>
<path d="M22.9154 19.5451L16.6022 10.7591C16.2998 10.3381 15.8895 10.1016 15.4617 10.1016H13.5721C13.1444 10.1016 12.7341 10.3381 12.4316 10.7591L6.11837 19.5451C5.81596 19.9661 5.646 20.537 5.646 21.1322V43.7715C5.646 45.0113 6.36817 46.0162 7.2589 46.0162H21.775C22.6657 46.0162 23.3879 45.0113 23.3879 43.7715V21.1324C23.3878 20.5371 23.2178 19.9661 22.9154 19.5451V19.5451Z" fill="#A5C3DC"/>
<path d="M5.64502 21.1342V43.7733C5.64502 45.0131 6.3671 46.018 7.25792 46.018H20.1611C21.052 46.018 21.774 45.0131 21.774 43.7733V21.1342C21.774 20.5389 21.6041 19.9679 21.3017 19.5469L14.9885 10.7609C14.6859 10.3399 14.2758 10.1035 13.8479 10.1035H13.5712C13.1435 10.1035 12.7332 10.34 12.4307 10.7609L6.1175 19.5469C5.81498 19.9679 5.64502 20.5389 5.64502 21.1342V21.1342Z" fill="#E6E6EB"/>
<path d="M13.7094 19.0797C15.0456 19.0797 16.1287 17.5722 16.1287 15.7127C16.1287 13.8532 15.0456 12.3457 13.7094 12.3457C12.3732 12.3457 11.29 13.8532 11.29 15.7127C11.29 17.5722 12.3732 19.0797 13.7094 19.0797Z" fill="#A5C3DC"/>
<path d="M16.9353 30.3028C17.3807 30.3028 17.7418 29.8003 17.7418 29.1805V28.9647C17.7418 26.6083 16.3642 24.6912 14.671 24.6912H14.516V22.4465C14.516 21.8267 14.1549 21.3242 13.7095 21.3242C13.2641 21.3242 12.903 21.8267 12.903 22.4465V24.6912H12.748C11.0548 24.6912 9.67725 26.6083 9.67725 28.9647C9.67725 30.9294 10.6337 32.6342 12.0033 33.1108L15.0245 34.1618C15.6747 34.3881 16.1289 35.1976 16.1289 36.1302C16.1289 37.2491 15.4749 38.1591 14.671 38.1591H12.748C11.9441 38.1591 11.2901 37.2491 11.2901 36.1302V35.9145C11.2901 35.2947 10.9291 34.7922 10.4837 34.7922C10.0383 34.7922 9.67725 35.2947 9.67725 35.9145V36.1302C9.67725 38.4867 11.0548 40.4038 12.748 40.4038H12.903V42.6484C12.903 43.2683 13.2641 43.7708 13.7095 43.7708C14.1549 43.7708 14.516 43.2683 14.516 42.6484V40.4038H14.671C16.3642 40.4038 17.7418 38.4867 17.7418 36.1302C17.7418 34.1656 16.7853 32.4608 15.4157 31.9842L12.3945 30.9332C11.7443 30.7069 11.2901 29.8974 11.2901 28.9647C11.2901 27.8459 11.9441 26.9359 12.748 26.9359H14.671C15.4749 26.9359 16.1289 27.8459 16.1289 28.9647V29.1805C16.1289 29.8003 16.4899 30.3028 16.9353 30.3028V30.3028Z" fill="#FE7A7C"/>
<path d="M37.097 57.2383H27.4195C26.5287 57.2383 25.8066 58.2432 25.8066 59.4829V67.3392H38.7099V59.4829C38.7099 58.2432 37.9878 57.2383 37.097 57.2383Z" fill="white"/>
<path d="M38.7094 59.4844H33.8707C32.9799 59.4844 32.2578 60.4893 32.2578 61.729V67.3407H38.7094V59.4844Z" fill="white"/>
<path d="M37.9033 42.6484H32.2581C29.5858 42.6484 27.4194 45.6633 27.4194 49.3824V57.2387H32.2581V51.6271C32.2581 50.3873 32.9802 49.3824 33.871 49.3824H37.9033C39.2395 49.3824 40.3226 47.875 40.3226 46.0154C40.3226 44.1559 39.2395 42.6484 37.9033 42.6484Z" fill="#BD8665"/>
<path d="M49.5273 41.0617C48.8974 40.1852 47.8761 40.1852 47.2463 41.0617L41.2672 49.3828H33.8707C32.98 49.3828 32.2578 50.3877 32.2578 51.6274V57.2391H37.0965V56.1167C37.0965 54.877 37.8187 53.8721 38.7094 53.8721H41.6013C42.2474 53.8721 42.8551 53.5219 43.3119 52.886L49.5274 44.2361C50.1573 43.3594 50.1573 41.9382 49.5273 41.0617V41.0617Z" fill="#BD8665"/>
<path d="M37.9031 47.8857H37.3655C36.9202 47.8857 36.5591 47.3832 36.5591 46.7633V45.2669C36.5591 44.6471 36.9202 44.1445 37.3655 44.1445H37.9031C38.6455 44.1445 39.2472 44.9821 39.2472 46.015C39.2472 47.0483 38.6455 47.8857 37.9031 47.8857V47.8857Z" fill="#BD8665"/>
<path d="M22.5804 62.8516H12.9029C12.0121 62.8516 11.29 63.8565 11.29 65.0962V67.3409H24.1933V65.0962C24.1933 63.8565 23.4712 62.8516 22.5804 62.8516Z" fill="white"/>
<path d="M24.1933 65.0957H19.3546C18.4638 65.0957 17.7417 66.1006 17.7417 67.3404H24.1933V65.0957Z" fill="white"/>
<path d="M12.0966 48.2598H17.7418C20.4141 48.2598 22.5805 51.2746 22.5805 54.9937H12.0966C10.7604 54.9937 9.67725 53.4863 9.67725 51.6267C9.67725 49.7672 10.7604 48.2598 12.0966 48.2598Z" fill="#BD8665"/>
<path d="M12.0965 53.497H12.6341C13.0795 53.497 13.4405 52.9945 13.4405 52.3747V50.8782C13.4405 50.2584 13.0795 49.7559 12.6341 49.7559H12.0965C11.3542 49.7559 10.7524 50.5934 10.7524 51.6264C10.7524 52.6596 11.3542 53.497 12.0965 53.497V53.497Z" fill="#BD8665"/>
<path d="M8.73253 54.9941L2.7534 46.673C2.12356 45.7965 1.10229 45.7965 0.472454 46.673C-0.157485 47.5496 -0.157485 48.9709 0.472454 49.8474L6.68787 58.4973C7.14473 59.1333 7.75239 59.4834 8.39856 59.4834H11.2903C12.181 59.4834 12.9032 60.4883 12.9032 61.7281V62.8504H22.5806V54.9941H8.73253Z" fill="#BD8665"/>
<path d="M11.29 59.4844C12.1808 59.4844 12.9029 60.4893 12.9029 61.729V62.8514H17.7416V61.729C17.7416 60.4893 17.0196 59.4844 16.1287 59.4844H11.29Z" fill="#BD8665"/>
<path d="M13.7097 16.8346C11.931 16.8346 10.4839 14.8207 10.4839 12.3453V10.1006C10.4839 7.6252 11.931 5.61133 13.7097 5.61133C14.1551 5.61133 14.5161 6.11385 14.5161 6.73366C14.5161 7.35346 14.1551 7.85598 13.7097 7.85598C12.8204 7.85598 12.0968 8.86299 12.0968 10.1006V12.3453C12.0968 13.5829 12.8204 14.5899 13.7097 14.5899C14.1551 14.5899 14.5161 15.0925 14.5161 15.7123C14.5161 16.3321 14.1551 16.8346 13.7097 16.8346Z" fill="white"/>
<path d="M34.6775 11.2233C34.2322 11.2233 33.8711 10.7208 33.8711 10.1009C33.8711 9.48114 34.2322 8.97862 34.6775 8.97862C35.5669 8.97862 36.2904 7.97161 36.2904 6.73397V4.48931C36.2904 3.25166 35.5669 2.24466 34.6775 2.24466C34.2322 2.24466 33.8711 1.74213 33.8711 1.12233C33.8711 0.502522 34.2322 0 34.6775 0C36.4563 0 37.9033 2.01388 37.9033 4.48931V6.73397C37.9033 9.2094 36.4563 11.2233 34.6775 11.2233Z" fill="white"/>
<path d="M43.8832 13.9318L37.57 5.14583C37.2676 4.72481 36.8573 4.48828 36.4295 4.48828H34.5399C34.1121 4.48828 33.7019 4.72481 33.3993 5.14583L27.0861 13.9318C26.7837 14.3528 26.6138 14.9237 26.6138 15.5189V38.1583C26.6138 39.398 27.3359 40.4029 28.2267 40.4029H42.7428C43.6335 40.4029 44.3557 39.398 44.3557 38.1583V15.5191C44.3556 14.9238 44.1856 14.3528 43.8832 13.9318V13.9318Z" fill="#FE7A7C"/>
<path d="M26.6128 15.5209V38.1601C26.6128 39.3998 27.3349 40.4047 28.2257 40.4047H41.1289C42.0197 40.4047 42.7418 39.3998 42.7418 38.1601V15.5209C42.7418 14.9256 42.5719 14.3547 42.2694 13.9336L35.9562 5.14764C35.6537 4.72662 35.2435 4.49023 34.8157 4.49023H34.539C34.1113 4.49023 33.701 4.72677 33.3985 5.14764L27.0853 13.9336C26.7828 14.3547 26.6128 14.9256 26.6128 15.5209V15.5209Z" fill="#FE7A7C"/>
<path d="M34.6772 13.4664C36.0133 13.4664 37.0965 11.9589 37.0965 10.0994C37.0965 8.23987 36.0133 6.73242 34.6772 6.73242C33.341 6.73242 32.2578 8.23987 32.2578 10.0994C32.2578 11.9589 33.341 13.4664 34.6772 13.4664Z" fill="#FE7A7C"/>
<path d="M37.9031 24.6915C38.3484 24.6915 38.7095 24.189 38.7095 23.5692V23.3534C38.7095 20.9969 37.332 19.0799 35.6388 19.0799H35.4837V16.8352C35.4837 16.2154 35.1226 15.7129 34.6773 15.7129C34.2319 15.7129 33.8708 16.2154 33.8708 16.8352V19.0799H33.7158C32.0225 19.0799 30.645 20.9969 30.645 23.3534C30.645 25.3181 31.6015 27.0229 32.971 27.4994L35.9923 28.5505C36.6425 28.7768 37.0966 29.5863 37.0966 30.5189C37.0966 31.6377 36.4427 32.5478 35.6388 32.5478H33.7158C32.9119 32.5478 32.2579 31.6377 32.2579 30.5189V30.3031C32.2579 29.6833 31.8968 29.1808 31.4515 29.1808C31.0061 29.1808 30.645 29.6833 30.645 30.3031V30.5189C30.645 32.8754 32.0225 34.7925 33.7158 34.7925H33.8708V37.0371C33.8708 37.6569 34.2319 38.1594 34.6773 38.1594C35.1226 38.1594 35.4837 37.6569 35.4837 37.0371V34.7925H35.6388C37.332 34.7925 38.7095 32.8754 38.7095 30.5189C38.7095 28.5543 37.7531 26.8495 36.3835 26.3729L33.3623 25.3218C32.7121 25.0955 32.2579 24.2861 32.2579 23.3534C32.2579 22.2346 32.9119 21.3245 33.7158 21.3245H35.6388C36.4427 21.3245 37.0966 22.2346 37.0966 23.3534V23.5692C37.0966 24.189 37.4577 24.6915 37.9031 24.6915V24.6915Z" fill="#E6E6EB"/>
<path d="M34.6775 11.2233C32.8987 11.2233 31.4517 9.2094 31.4517 6.73397V4.48931C31.4517 2.01388 32.8987 0 34.6775 0C35.1228 0 35.4839 0.502522 35.4839 1.12233C35.4839 1.74213 35.1228 2.24466 34.6775 2.24466C33.7882 2.24466 33.0646 3.25166 33.0646 4.48931V6.73397C33.0646 7.97161 33.7882 8.97862 34.6775 8.97862C35.1228 8.97862 35.4839 9.48114 35.4839 10.1009C35.4839 10.7208 35.1228 11.2233 34.6775 11.2233Z" fill="white"/>
</svg>
