<svg width="50" height="68" viewBox="0 0 50 68" fill="none" xmlns="http://www.w3.org/2000/svg">
<path d="M1.91927 60.3679H31.5627C31.4412 60.0426 31.3371 59.7071 31.2414 59.3609C31.2153 59.2454 31.1891 59.1405 31.1634 59.0254C31.1023 58.7841 31.0504 58.5428 31.007 58.3015C30.9808 58.1655 30.9635 58.0393 30.9374 57.9033C30.9028 57.6722 30.8678 57.4313 30.8417 57.19C30.8244 57.0536 30.8159 56.9172 30.8071 56.7808C30.7898 56.5292 30.781 56.267 30.7725 56.0048C30.7725 55.9106 30.7637 55.8266 30.7637 55.732C30.7637 55.7008 30.7637 55.6693 30.7637 55.6378C30.7637 55.3547 30.781 55.0609 30.7983 54.7672C30.8071 54.6832 30.8071 54.5996 30.8071 54.5156C30.8678 53.7917 30.9896 53.0682 31.1545 52.3759C32.0665 48.6425 34.4896 45.7161 37.5817 44.6047C38.1636 44.3949 38.7631 44.2585 39.3623 44.1852C39.4318 44.1745 39.5098 44.1745 39.5794 44.1643C39.8138 44.143 40.0571 44.1221 40.2915 44.1221C40.3177 44.1221 40.3438 44.1221 40.3699 44.1221C40.4479 44.1221 40.5175 44.1327 40.5955 44.1327C40.8127 44.143 41.0213 44.1536 41.2384 44.1745C41.3511 44.1852 41.4641 44.2061 41.577 44.2269C41.7769 44.2585 41.9679 44.3003 42.1677 44.3425C42.2807 44.3634 42.3933 44.3949 42.4978 44.4265C42.6973 44.4789 42.8972 44.5416 43.097 44.6149C43.1927 44.6465 43.288 44.678 43.3749 44.7198C43.6615 44.8353 43.9394 44.9611 44.2088 45.1082V2.31797C44.2088 1.03813 43.3487 0 42.2892 0H12.4982V11.6099C12.4982 12.8893 11.6385 13.9279 10.5789 13.9279H0V58.0393C0 59.3191 0.859721 60.3679 1.91927 60.3679Z" fill="white"/>
<path d="M12.498 60.3672H42.2979C43.3574 60.3672 44.2171 59.3287 44.2171 58.0492V24.4883C38.9713 41.8456 27.1937 55.1651 12.498 60.3672Z" fill="#FE7A7C"/>
<path d="M31.172 59.0145C31.1113 58.7732 31.0591 58.5323 31.0156 58.291C31.0506 58.5426 31.1113 58.7839 31.172 59.0145Z" fill="white"/>
<path d="M30.8071 56.7705C30.7898 56.5185 30.7809 56.2563 30.7725 55.9941C30.7809 56.2563 30.7898 56.5185 30.8071 56.7705Z" fill="white"/>
<path d="M30.9375 57.8929C30.9029 57.6623 30.8679 57.421 30.8418 57.1797C30.8679 57.421 30.9029 57.6623 30.9375 57.8929Z" fill="white"/>
<path d="M40.6045 44.123C40.8216 44.1335 41.0299 44.1436 41.2471 44.1646C41.0299 44.1436 40.8216 44.1335 40.6045 44.123Z" fill="white"/>
<path d="M39.5884 44.1646C39.8228 44.1436 40.0573 44.123 40.3005 44.123C40.0661 44.123 39.8228 44.1335 39.5884 44.1646Z" fill="white"/>
<path d="M31.5713 60.3683C31.4495 60.043 31.3453 59.7075 31.25 59.3613C31.3453 59.6969 31.4495 60.0324 31.5713 60.3683Z" fill="white"/>
<path d="M44.2174 45.0872C43.9483 44.9405 43.6705 44.8147 43.3838 44.6992C43.6705 44.8147 43.9483 44.9405 44.2174 45.0872Z" fill="white"/>
<path d="M42.5063 44.4043C42.7062 44.4567 42.906 44.5198 43.1059 44.5932C42.906 44.5305 42.715 44.4567 42.5063 44.4043Z" fill="white"/>
<path d="M30.7637 55.628C30.7637 55.3346 30.781 55.0511 30.7983 54.7578C30.781 55.0511 30.7725 55.3346 30.7637 55.628Z" fill="white"/>
<path d="M41.5859 44.2168C41.7854 44.2479 41.9768 44.2901 42.1763 44.3319C41.9853 44.2795 41.7854 44.2479 41.5859 44.2168Z" fill="white"/>
<path d="M39.3711 44.1738C38.7716 44.2472 38.1724 44.3942 37.5906 44.5933C34.4984 45.7052 32.0753 48.6209 31.1633 52.365C30.9981 53.0676 30.8766 53.7808 30.8159 54.5043C31.2936 49.0613 34.8546 44.7507 39.3711 44.1738Z" fill="white"/>
<path d="M12.4982 11.6099V0L0 13.9279H10.5789C11.6385 13.9279 12.4982 12.8893 12.4982 11.6099Z" fill="#FE7A7C"/>
<path d="M43.1058 44.6042C42.9144 44.5308 42.7061 44.4677 42.5063 44.4153C42.3933 44.3838 42.2891 44.3629 42.1762 44.3313C41.9851 44.2895 41.7853 44.2473 41.5858 44.2162C41.4728 44.1949 41.3599 44.1847 41.2469 44.1638C41.0386 44.1425 40.8214 44.1322 40.6043 44.1216C40.5001 44.1216 40.4045 44.1113 40.3003 44.1113C40.057 44.1113 39.8226 44.1322 39.5882 44.1531C39.5186 44.1638 39.4402 44.1638 39.371 44.174C34.8546 44.7508 31.2936 49.0508 30.8159 54.5045C30.8071 54.5885 30.8071 54.6725 30.8071 54.7564C30.7898 55.0395 30.7725 55.3333 30.7725 55.6266C30.7725 55.7528 30.7809 55.8679 30.7809 55.9937C30.7898 56.2559 30.7982 56.5181 30.8159 56.77C30.8244 56.9064 30.8417 57.0425 30.8505 57.1789C30.8766 57.4202 30.9112 57.6508 30.9462 57.8921C30.9635 58.0285 30.9896 58.165 31.0154 58.2907C31.0588 58.532 31.1111 58.7729 31.1718 59.0142C31.1979 59.1298 31.224 59.2346 31.2502 59.3498C31.3455 59.6959 31.4497 60.0315 31.5715 60.3568C33.6906 66.2406 39.3534 68.9252 44.2172 66.3766C49.0899 63.8177 51.3135 56.9798 49.2029 51.1066C48.2302 48.4113 46.4497 46.2613 44.2261 45.097C43.9567 44.9504 43.6788 44.8242 43.3921 44.7091C43.2968 44.6669 43.2011 44.6357 43.1058 44.6042ZM40.3783 62.685V55.7212V62.685Z" fill="white"/>
<path d="M30.8071 54.7578C30.815 54.6738 30.815 54.5898 30.815 54.5059C30.8071 54.5898 30.8071 54.6738 30.8071 54.7578Z" fill="white"/>
<path d="M30.7637 55.7216C30.7637 55.8158 30.7716 55.8998 30.7716 55.994C30.7716 55.8789 30.7637 55.7531 30.7637 55.627C30.7637 55.6585 30.7637 55.69 30.7637 55.7216Z" fill="white"/>
<path d="M39.3711 44.1749C39.4403 44.1648 39.5187 44.1648 39.5882 44.1543C39.5099 44.1648 39.4403 44.1648 39.3711 44.1749Z" fill="white"/>
<path d="M30.8505 57.1803C30.8332 57.0439 30.8244 56.9079 30.8159 56.7715C30.8159 56.9079 30.8332 57.0439 30.8505 57.1803Z" fill="white"/>
<path d="M31.2502 59.3512C31.2241 59.236 31.198 59.1312 31.1719 59.0156C31.198 59.1312 31.2241 59.2463 31.2502 59.3512Z" fill="white"/>
<path d="M43.106 44.6055C43.2013 44.637 43.297 44.6681 43.3838 44.7103C43.297 44.6681 43.2013 44.637 43.106 44.6055Z" fill="white"/>
<path d="M42.1763 44.3223C42.2892 44.3432 42.4022 44.3747 42.5064 44.4058C42.3934 44.3747 42.2892 44.3534 42.1763 44.3223Z" fill="white"/>
<path d="M31.0071 58.2912C30.9809 58.1548 30.9636 58.029 30.9375 57.8926C30.9636 58.029 30.9809 58.1548 31.0071 58.2912Z" fill="white"/>
<path d="M41.2383 44.1641C41.3509 44.1741 41.4639 44.1947 41.5769 44.2157C41.4727 44.1947 41.3597 44.1741 41.2383 44.1641Z" fill="white"/>
<path d="M40.3783 44.1113C40.3522 44.1113 40.3264 44.1113 40.3003 44.1113C40.4044 44.1113 40.5086 44.1209 40.6043 44.1209C40.5259 44.1209 40.4567 44.1113 40.3783 44.1113Z" fill="white"/>
<path d="M40.3784 63.8498C39.8488 63.8498 39.4146 63.3254 39.4146 62.6855V48.7576C39.4146 48.1181 39.8488 47.5938 40.3784 47.5938C40.9084 47.5938 41.3426 48.1181 41.3426 48.7576V62.6855C41.3338 63.3254 40.9084 63.8498 40.3784 63.8498Z" fill="#FE7A7C"/>
<path d="M46.1455 56.8751H34.6112C34.0812 56.8751 33.647 56.3507 33.647 55.7108C33.647 55.0713 34.0812 54.5469 34.6112 54.5469H46.1455C46.6751 54.5469 47.1094 55.0713 47.1094 55.7108C47.1094 56.3609 46.6751 56.8751 46.1455 56.8751Z" fill="#FE7A7C"/>
<path d="M36.5309 31.338H7.69532C7.16572 31.338 6.73145 30.8136 6.73145 30.1737C6.73145 29.5342 7.16572 29.0098 7.69532 29.0098H36.5309C37.0609 29.0098 37.4951 29.5342 37.4951 30.1737C37.4951 30.8238 37.0609 31.338 36.5309 31.338Z" fill="#FE7A7C"/>
<path d="M36.5309 38.3126H7.69532C7.16572 38.3126 6.73145 37.7882 6.73145 37.1483C6.73145 36.5088 7.16572 35.9844 7.69532 35.9844H36.5309C37.0609 35.9844 37.4951 36.5088 37.4951 37.1483C37.4951 37.7882 37.0609 38.3126 36.5309 38.3126Z" fill="#FE7A7C"/>
<path d="M31.7282 45.2755H7.69532C7.16572 45.2755 6.73145 44.7511 6.73145 44.1116C6.73145 43.4717 7.16572 42.9473 7.69532 42.9473H31.7282C32.2578 42.9473 32.692 43.4717 32.692 44.1116C32.692 44.7511 32.2578 45.2755 31.7282 45.2755Z" fill="#FE7A7C"/>
<path d="M27.8804 52.2407H7.69532C7.16572 52.2407 6.73145 51.7163 6.73145 51.0764C6.73145 50.4365 7.16572 49.9121 7.69532 49.9121H27.8804C28.41 49.9121 28.8443 50.4365 28.8443 51.0764C28.8443 51.7163 28.41 52.2407 27.8804 52.2407Z" fill="#FE7A7C"/>
<path d="M36.5308 24.3731H15.3818C14.8522 24.3731 14.418 23.8487 14.418 23.2092C14.418 22.5693 14.8522 22.0449 15.3818 22.0449H36.5308C37.0608 22.0449 37.4951 22.5693 37.4951 23.2092C37.4951 23.8594 37.0608 24.3731 36.5308 24.3731Z" fill="#FE7A7C"/>
<path d="M11.5346 24.3731H7.69532C7.16572 24.3731 6.73145 23.8487 6.73145 23.2092C6.73145 22.5693 7.16572 22.0449 7.69532 22.0449H11.5346C12.0642 22.0449 12.4984 22.5693 12.4984 23.2092C12.4984 23.8594 12.0642 24.3731 11.5346 24.3731Z" fill="#FE7A7C"/>
</svg>
